# xmcd
#
# Track frame offsets:
#	150
#	8923
#	23246
#	37541
#	43690
#	58407
#	72090
#	84734
#	89004
#	91304
#	111674
#	131176
#	145203
#	149403
#	163798
#
# Disc length: 2382 seconds
#
# Revision: 0
# Processed by: cddbd v1.5.2PL0 Copyright (c) Steve Scherf et al.
# Submitted via: EZCDAudioConverter 7.0.6.1
#
DISCID=da094c0f
DTITLE=The Lively Ones - THE LIVELY ONES (1970)
DYEAR=1900
DGENRE=
TTITLE0=We've Something To Give You
TTITLE1=Why, Oh Why
TTITLE2=Nothing Really Changes
TTITLE3=Walking Backwards Down The Stairs
TTITLE4=Our Hearts Need Love
TTITLE5=Before I Knew Him
TTITLE6=Love Is Something You Do
TTITLE7=Walking Backwards Down The Stairs
TTITLE8=Walking Backwards Down The Stairs
TTITLE9=Punching Holes In The Darkness
TTITLE10=Moses
TTITLE11=We Are One
TTITLE12=Walking Backwards Down The Stairs
TTITLE13=Steeples
TTITLE14=Follow That Star
EXTD=
EXTT0=
EXTT1=
EXTT2=
EXTT3=
EXTT4=
EXTT5=
EXTT6=
EXTT7=
EXTT8=
EXTT9=
EXTT10=
EXTT11=
EXTT12=
EXTT13=
EXTT14=
PLAYORDER=
